<svg width="80" height="80" viewBox="0 0 80 80" fill="none" xmlns="http://www.w3.org/2000/svg">
<g clip-path="url(#clip0_135_282)">
<path d="M23.8542 15H56.1458C57.3089 14.9989 58.4607 15.233 59.5355 15.689C60.6102 16.1449 61.5867 16.8138 62.4091 17.6573C63.2315 18.5008 63.8837 19.5023 64.3283 20.6046C64.7728 21.7069 65.0011 22.8883 65 24.0812V55.9188C65.0011 57.1117 64.7728 58.2931 64.3283 59.3953C63.8837 60.4976 63.2315 61.4992 62.4091 62.3427C61.5867 63.1862 60.6102 63.855 59.5355 64.311C58.4607 64.767 57.3089 65.0011 56.1458 65H23.8542C22.6911 65.0011 21.5393 64.767 20.4645 64.311C19.3898 63.855 18.4133 63.1862 17.5909 62.3427C16.7685 61.4992 16.1163 60.4976 15.6718 59.3953C15.2272 58.2931 14.9989 57.1117 15 55.9188V24.0812C14.9989 22.8883 15.2272 21.7069 15.6718 20.6046C16.1163 19.5023 16.7685 18.5008 17.5909 17.6573C18.4133 16.8138 19.3898 16.1449 20.4645 15.689C21.5393 15.233 22.6911 14.9989 23.8542 15Z" fill="#470137"/>
<path d="M41.7003 29.6812L35.4503 40.2581L42.1169 51.4761C42.1608 51.5535 42.1756 51.6447 42.1586 51.7325C42.1378 51.818 42.0544 51.7539 41.9294 51.7752H37.1586C36.8253 51.7752 36.5961 51.7539 36.4503 51.5402C36.0128 50.6428 35.5544 49.7667 35.1169 48.8693C34.6794 47.9718 34.2003 47.0958 33.7003 46.177C33.2003 45.2581 32.7003 44.3393 32.2003 43.3992H32.1586C31.7211 44.318 31.2419 45.2368 30.7628 46.1556C30.2836 47.0744 29.8044 47.9932 29.3461 48.8906C28.8878 49.7881 28.3878 50.7069 27.9086 51.5829C27.8253 51.7966 27.6586 51.818 27.4294 51.818H22.8461C22.7628 51.818 22.7003 51.8607 22.7003 51.7539C22.691 51.7139 22.6899 51.6723 22.6971 51.6319C22.7042 51.5914 22.7195 51.5529 22.7419 51.5188L29.2211 40.6214L22.9086 29.6599C22.8461 29.5744 22.8253 29.4889 22.8669 29.4462C22.8923 29.4157 22.9246 29.392 22.9609 29.3771C22.9971 29.3623 23.0364 29.3566 23.0753 29.3607H27.8044C27.903 29.3629 28.0009 29.3773 28.0961 29.4034C28.1796 29.4495 28.251 29.5155 28.3044 29.5958C28.7003 30.5146 29.1586 31.4334 29.6378 32.3522C30.1169 33.271 30.6169 34.1684 31.1378 35.0658C31.6586 35.9633 32.0961 36.8607 32.5336 37.7795H32.5753C33.0128 36.8393 33.4711 35.9205 33.9294 35.0231C34.3878 34.1257 34.8669 33.2282 35.3461 32.3308C35.8253 31.4334 36.2836 30.5146 36.7419 29.6385C36.7577 29.5544 36.802 29.4787 36.8669 29.4248C36.9494 29.3781 37.0454 29.363 37.1378 29.3821H41.5336C41.5582 29.3764 41.5837 29.3758 41.6086 29.3802C41.6334 29.3847 41.6572 29.3941 41.6785 29.408C41.6998 29.4219 41.7182 29.44 41.7327 29.4612C41.7471 29.4824 41.7574 29.5064 41.7628 29.5317C41.7836 29.553 41.7419 29.6385 41.7003 29.6812V29.6812ZM51.3253 52.224C49.781 52.25 48.2506 51.9214 46.8461 51.2624C45.5394 50.6357 44.4442 49.624 43.7003 48.3564C42.9294 47.053 42.5544 45.4291 42.5544 43.4846C42.5333 41.9034 42.9292 40.3456 43.7003 38.9761C44.4909 37.5842 45.636 36.4393 47.0128 35.6641C48.4711 34.8308 50.2211 34.4248 52.2836 34.4248C52.4297 34.4231 52.5758 34.4303 52.7211 34.4462C52.9086 34.4676 53.1169 34.4676 53.3669 34.4889V27.7368C53.3669 27.5872 53.4294 27.5017 53.5753 27.5017H57.8044C57.8511 27.4953 57.8985 27.507 57.9371 27.5348C57.9757 27.5625 58.0027 27.6041 58.0128 27.6513V48.0359C58.0128 48.4205 58.0336 48.8479 58.0544 49.318C58.0753 49.7881 58.1169 50.194 58.1378 50.5573C58.1422 50.6295 58.1245 50.7012 58.0871 50.7626C58.0498 50.8239 57.9946 50.8716 57.9294 50.8992C56.8382 51.3695 55.6992 51.7136 54.5336 51.9248C53.4748 52.1207 52.4012 52.2208 51.3253 52.224V52.224ZM53.3669 47.9505V38.5487C53.1814 38.5028 52.9937 38.4672 52.8044 38.4419C52.5753 38.4205 52.3461 38.3992 52.1169 38.3992C51.3003 38.3897 50.4933 38.5802 49.7628 38.9547C49.0509 39.3186 48.4413 39.8628 47.9919 40.5359C47.5336 41.2197 47.3044 42.1385 47.3044 43.2496C47.2863 43.9995 47.4065 44.7463 47.6586 45.4505C47.8601 46.0199 48.18 46.5376 48.5961 46.9675C48.9978 47.3607 49.4826 47.6532 50.0128 47.8222C50.5708 48.0097 51.1547 48.1035 51.7419 48.1C52.0544 48.1 52.3461 48.0787 52.6169 48.0573C52.8715 48.0759 53.127 48.0395 53.3669 47.9505V47.9505Z" fill="#FF61F6"/>
</g>
<defs>
<clipPath id="clip0_135_282">
<rect width="50" height="50" fill="white" transform="translate(15 15)"/>
</clipPath>
</defs>
</svg>
