<svg width="80" height="80" viewBox="0 0 80 80" fill="none" xmlns="http://www.w3.org/2000/svg">
<g clip-path="url(#clip0_135_293)">
<path d="M23.8542 15H56.1458C57.3089 14.9989 58.4607 15.233 59.5355 15.689C60.6102 16.1449 61.5867 16.8138 62.4091 17.6573C63.2315 18.5008 63.8837 19.5023 64.3283 20.6046C64.7728 21.7069 65.0011 22.8883 65 24.0812V55.9188C65.0011 57.1117 64.7728 58.2931 64.3283 59.3953C63.8837 60.4976 63.2315 61.4992 62.4091 62.3427C61.5867 63.1862 60.6102 63.855 59.5355 64.311C58.4607 64.767 57.3089 65.0011 56.1458 65H23.8542C22.6911 65.0011 21.5393 64.767 20.4645 64.311C19.3898 63.855 18.4133 63.1862 17.5909 62.3427C16.7685 61.4992 16.1163 60.4976 15.6718 59.3953C15.2272 58.2931 14.9989 57.1117 15 55.9188V24.0812C14.9989 22.8883 15.2272 21.7069 15.6718 20.6046C16.1163 19.5023 16.7685 18.5008 17.5909 17.6573C18.4133 16.8138 19.3898 16.1449 20.4645 15.689C21.5393 15.233 22.6911 14.9989 23.8542 15V15Z" fill="#330000"/>
<path d="M39.2291 45H31.4791L29.8958 50.0214C29.8781 50.1129 29.8277 50.1943 29.7544 50.2497C29.6812 50.305 29.5904 50.3303 29.5 50.3205H25.5833C25.3541 50.3205 25.2916 50.1923 25.3541 49.9359L32.0625 30.1282C32.125 29.9145 32.1875 29.6795 32.2708 29.4231C32.3546 28.9651 32.3965 28.5001 32.3958 28.0342C32.3895 27.9807 32.4033 27.9267 32.4342 27.8831C32.4651 27.8395 32.5109 27.8095 32.5625 27.7991H37.9583C38.125 27.7991 38.2083 27.8632 38.2291 27.9701L45.8333 49.9786C45.8958 50.2137 45.8333 50.3205 45.625 50.3205H41.2708C41.1971 50.3278 41.1234 50.3082 41.0624 50.2652C41.0014 50.2222 40.9572 50.1586 40.9375 50.0855L39.2291 45ZM32.6875 40.6624H37.9791C37.8541 40.2137 37.6875 39.6795 37.5 39.1239C37.3125 38.5684 37.125 37.9274 36.9375 37.2863C36.75 36.6453 36.5416 35.9829 36.3333 35.3205C36.125 34.6581 35.9375 34.0385 35.7708 33.4188C35.6041 32.7991 35.4583 32.265 35.3125 31.7521H35.2708C35.0836 32.6834 34.8471 33.6036 34.5625 34.5085C34.25 35.5342 33.9375 36.6026 33.6041 37.6709C33.3125 38.7607 33 39.765 32.6875 40.6624V40.6624ZM50.375 31.453C50.033 31.4607 49.6929 31.3985 49.3746 31.2701C49.0563 31.1417 48.7661 30.9497 48.5208 30.7051C48.0435 30.1699 47.7893 29.4643 47.8125 28.7393C47.8002 28.3861 47.8606 28.0341 47.9898 27.7065C48.119 27.3788 48.3142 27.0827 48.5625 26.8376C49.0632 26.3522 49.7276 26.0842 50.4166 26.0897C51.2291 26.0897 51.8541 26.3462 52.3125 26.8376C52.774 27.3557 53.0206 28.0378 53 28.7393C53.0127 29.1003 52.9547 29.4603 52.8294 29.7979C52.7042 30.1356 52.5142 30.4441 52.2708 30.7051C52.0253 30.9616 51.729 31.161 51.402 31.2901C51.0749 31.4191 50.7247 31.4746 50.375 31.453V31.453ZM48.0416 50V33.547C48.0416 33.3333 48.125 33.2479 48.3125 33.2479H52.4375C52.625 33.2479 52.7083 33.3547 52.7083 33.547V50C52.7083 50.235 52.625 50.3419 52.4375 50.3419H48.3541C48.3103 50.3456 48.2663 50.3391 48.2253 50.3229C48.1843 50.3067 48.1474 50.2812 48.1174 50.2483C48.0873 50.2155 48.0649 50.1761 48.0518 50.1331C48.0387 50.0901 48.0352 50.0446 48.0416 50V50Z" fill="#FF9A00"/>
</g>
<defs>
<clipPath id="clip0_135_293">
<rect width="50" height="50" fill="white" transform="translate(15 15)"/>
</clipPath>
</defs>
</svg>
