<svg width="80" height="80" viewBox="0 0 80 80" fill="none" xmlns="http://www.w3.org/2000/svg">
<g clip-path="url(#clip0_135_297)">
<path d="M23.8542 15H56.1458C57.3089 14.9989 58.4607 15.233 59.5355 15.689C60.6102 16.1449 61.5867 16.8138 62.4091 17.6573C63.2315 18.5008 63.8837 19.5023 64.3283 20.6046C64.7728 21.7069 65.0011 22.8883 65 24.0812V55.9188C65.0011 57.1117 64.7728 58.2931 64.3283 59.3953C63.8837 60.4976 63.2315 61.4992 62.4091 62.3427C61.5867 63.1862 60.6102 63.855 59.5355 64.311C58.4607 64.767 57.3089 65.0011 56.1458 65H23.8542C22.6911 65.0011 21.5393 64.767 20.4645 64.311C19.3898 63.855 18.4133 63.1862 17.5909 62.3427C16.7685 61.4992 16.1163 60.4976 15.6718 59.3953C15.2272 58.2931 14.9989 57.1117 15 55.9188V24.0812C14.9989 22.8883 15.2272 21.7069 15.6718 20.6046C16.1163 19.5023 16.7685 18.5008 17.5909 17.6573C18.4133 16.8138 19.3898 16.1449 20.4645 15.689C21.5393 15.233 22.6911 14.9989 23.8542 15V15Z" fill="#001E36"/>
<path d="M26.25 50.0641V28.0769C26.25 27.9274 26.3125 27.8419 26.4583 27.8419C26.8125 27.8419 27.1458 27.8419 27.625 27.8205C28.1042 27.7991 28.6458 27.7991 29.2083 27.7778C29.7708 27.7564 30.375 27.7564 31.0208 27.735C31.6667 27.7137 32.2917 27.7137 32.9167 27.7137C34.625 27.7137 36.0417 27.9274 37.2083 28.3761C38.2542 28.7403 39.2078 29.3389 40 30.1282C40.6713 30.819 41.19 31.6497 41.5208 32.5641C41.8362 33.4546 41.9983 34.3945 42 35.3419C42 37.1795 41.5833 38.6966 40.75 39.8932C39.9128 41.0881 38.7439 41.9965 37.3958 42.5C35.9792 43.0342 34.4167 43.2265 32.7083 43.2265C32.2083 43.2265 31.875 43.2265 31.6667 43.2051C31.4583 43.1838 31.1667 43.1838 30.7708 43.1838V50.0427C30.7755 50.0779 30.7732 50.1137 30.7641 50.1479C30.755 50.1821 30.7394 50.2142 30.718 50.2421C30.6966 50.27 30.67 50.2932 30.6397 50.3103C30.6094 50.3275 30.5761 50.3382 30.5417 50.3419H26.5C26.3333 50.3419 26.25 50.2564 26.25 50.0641ZM30.7917 31.9658V39.1453C31.0833 39.1667 31.3542 39.188 31.6042 39.188H32.7083C33.5216 39.189 34.3301 39.0593 35.1042 38.8034C35.7683 38.6031 36.3617 38.2098 36.8125 37.6709C37.25 37.1368 37.4583 36.4103 37.4583 35.4701C37.4779 34.8024 37.3117 34.1427 36.9792 33.5684C36.6318 33.0136 36.1209 32.5869 35.5208 32.3504C34.7387 32.0363 33.9019 31.8908 33.0625 31.9231C32.5208 31.9231 32.0417 31.9231 31.6458 31.9444C31.3611 31.9254 31.0752 31.9325 30.7917 31.9658V31.9658ZM55 37.8419C54.371 37.5021 53.6973 37.2574 53 37.1154C52.2341 36.9375 51.4519 36.8444 50.6667 36.8376C50.245 36.8227 49.8236 36.8731 49.4167 36.9872C49.1572 37.0426 48.927 37.1949 48.7708 37.4145C48.6656 37.5879 48.608 37.7873 48.6042 37.9915C48.6139 38.1947 48.6869 38.3895 48.8125 38.547C49.01 38.7845 49.2505 38.9805 49.5208 39.1239C50 39.3803 50.5 39.6154 51 39.8291C52.1256 40.2177 53.2025 40.7413 54.2083 41.3889C54.8925 41.8301 55.4583 42.4398 55.8542 43.1624C56.1889 43.8441 56.3536 44.6003 56.3333 45.3633C56.3502 46.3732 56.0668 47.3645 55.5208 48.2051C54.9397 49.0581 54.1289 49.7189 53.1875 50.1068C52.1667 50.5556 50.9167 50.7906 49.4167 50.7906C48.4656 50.7945 47.5165 50.7015 46.5833 50.5128C45.8486 50.3826 45.134 50.1527 44.4583 49.8291C44.3857 49.7917 44.3253 49.7333 44.2846 49.6612C44.2439 49.5891 44.2246 49.5063 44.2292 49.4231V45.7051C44.2274 45.6686 44.234 45.6322 44.2484 45.5988C44.2629 45.5654 44.2849 45.5359 44.3125 45.5128C44.3419 45.4953 44.3759 45.4879 44.4097 45.4917C44.4435 45.4956 44.4751 45.5105 44.5 45.5342C45.3025 46.0194 46.1742 46.3727 47.0833 46.5812C47.886 46.7954 48.7122 46.9031 49.5417 46.9017C50.3333 46.9017 50.8958 46.7949 51.2708 46.6026C51.4381 46.5233 51.5799 46.3968 51.6795 46.2378C51.7791 46.0789 51.8325 45.8941 51.8333 45.7051C51.8333 45.406 51.6667 45.1282 51.3333 44.8504C51 44.5727 50.3125 44.2521 49.2917 43.8462C48.2444 43.4677 47.2499 42.9505 46.3333 42.3077C45.6805 41.8305 45.1396 41.21 44.75 40.4915C44.4175 39.8166 44.2529 39.0679 44.2708 38.312C44.2739 37.4002 44.5188 36.5065 44.9792 35.7265C45.5084 34.8687 46.268 34.1861 47.1667 33.7607C48.1458 33.2479 49.375 33.0128 50.8542 33.0128C51.7187 33.0131 52.582 33.0773 53.4375 33.2051C54.0526 33.2905 54.6546 33.4556 55.2292 33.6966C55.3207 33.7299 55.3956 33.799 55.4375 33.8889C55.4615 33.9723 55.4755 34.0584 55.4792 34.1453V37.6282C55.4795 37.6697 55.4702 37.7107 55.4521 37.7479C55.434 37.785 55.4076 37.8172 55.375 37.8419C55.2538 37.8866 55.1212 37.8866 55 37.8419V37.8419Z" fill="#31A8FF"/>
</g>
<defs>
<clipPath id="clip0_135_297">
<rect width="50" height="50" fill="white" transform="translate(15 15)"/>
</clipPath>
</defs>
</svg>
