<svg width="80" height="80" viewBox="0 0 80 80" fill="none" xmlns="http://www.w3.org/2000/svg">
<path d="M39.9719 66L21.1864 60.8018L17 14H63L58.8093 60.7946L39.9719 66V66Z" fill="#264DE4"/>
<path d="M55.2216 57.8149L58.8026 17.8267H40V62.0211L55.2216 57.8149V57.8149Z" fill="#2965F1"/>
<path d="M26.5971 35.1848L27.1132 40.9249H40.0001V35.1848H26.5971ZM25.5599 23.5669L26.0834 29.3069H40.0001V23.5669H25.5599V23.5669ZM40.0001 50.0924L39.9748 50.0991L33.5614 48.3729L33.1514 43.795H27.3705L28.1772 52.8078L39.9735 56.0717L40.0001 56.0645V50.0924Z" fill="#EBEBEB"/>
<path d="M53.3662 35.1848L54.4057 23.5669H39.9802V29.3069H48.0947L47.5707 35.1848H39.9802V40.9249H47.0714L46.4028 48.3693L39.98 50.0973V56.069L51.7857 52.8078L51.8723 51.838L53.2257 36.7262L53.3662 35.1848V35.1848Z" fill="white"/>
</svg>
