<svg width="80" height="80" viewBox="0 0 80 80" fill="none" xmlns="http://www.w3.org/2000/svg">
<g clip-path="url(#clip0_135_275)">
<path d="M32.7734 65.3906C37.4219 65.3906 41.1719 61.6406 41.1719 56.9922V48.5938H32.7734C28.125 48.5938 24.375 52.3438 24.375 56.9922C24.375 61.6406 28.125 65.3906 32.7734 65.3906Z" fill="#0ACF83"/>
<path d="M24.375 40.1953C24.375 35.5469 28.125 31.7969 32.7734 31.7969H41.1719V48.5938H32.7734C28.125 48.5938 24.375 44.8437 24.375 40.1953Z" fill="#A259FF"/>
<path d="M24.375 23.3984C24.375 18.75 28.125 15 32.7734 15H41.1719V31.7969H32.7734C28.125 31.7969 24.375 28.0469 24.375 23.3984Z" fill="#F24E1E"/>
<path d="M41.1719 15H49.5703C54.2187 15 57.9688 18.75 57.9688 23.3984C57.9688 28.0469 54.2187 31.7969 49.5703 31.7969H41.1719V15Z" fill="#FF7262"/>
<path d="M57.9688 40.1953C57.9688 44.8437 54.2187 48.5938 49.5703 48.5938C44.9219 48.5938 41.1719 44.8437 41.1719 40.1953C41.1719 35.5469 44.9219 31.7969 49.5703 31.7969C54.2187 31.7969 57.9688 35.5469 57.9688 40.1953Z" fill="#1ABCFE"/>
</g>
<defs>
<clipPath id="clip0_135_275">
<rect width="50" height="50" fill="white" transform="translate(15 15)"/>
</clipPath>
</defs>
</svg>
