<svg width="80" height="80" viewBox="0 0 80 80" fill="none" xmlns="http://www.w3.org/2000/svg">
<path d="M40.0002 15C25.6425 15 14 26.476 14 40.6329C14 51.9582 21.4498 61.5666 31.7805 64.9559C33.0799 65.1932 33.5571 64.3998 33.5571 63.7228C33.5571 63.1116 33.5327 61.0924 33.5217 58.9507C26.2885 60.5011 24.7622 55.9262 24.7622 55.9262C23.5794 52.9634 21.8752 52.1754 21.8752 52.1754C19.5163 50.5846 22.0531 50.6174 22.0531 50.6174C24.6639 50.7981 26.0386 53.2588 26.0386 53.2588C28.3577 57.1774 32.1212 56.0446 33.6048 55.3895C33.8382 53.733 34.512 52.602 35.2556 51.962C29.4806 51.3139 23.4098 49.1159 23.4098 39.2942C23.4098 36.4956 24.4254 34.2089 26.0886 32.4138C25.8186 31.7682 24.9287 29.1613 26.3405 25.6304C26.3405 25.6304 28.5238 24.9415 33.4925 28.2579C35.5664 27.69 37.7906 27.4052 40.0002 27.3954C42.2098 27.4052 44.4358 27.6898 46.5136 28.2579C51.4762 24.9417 53.6565 25.6306 53.6565 25.6306C55.0717 29.1611 54.1814 31.7684 53.9114 32.4138C55.5785 34.2089 56.5872 36.4956 56.5872 39.2942C56.5872 49.1394 50.5048 51.3071 44.7151 51.9417C45.6477 52.7372 46.4787 54.2971 46.4787 56.6886C46.4787 60.1182 46.4486 62.8785 46.4486 63.7228C46.4486 64.405 46.9166 65.2043 48.2345 64.9523C58.5595 61.5594 66 51.9546 66 40.6331C66 26.476 54.3591 15 40.0002 15ZM23.738 51.5146C23.6807 51.642 23.4774 51.6802 23.2924 51.5927C23.1037 51.5092 22.9978 51.3356 23.0588 51.2078C23.1148 51.0766 23.3186 51.04 23.5067 51.1279C23.6956 51.2116 23.8032 51.3868 23.738 51.5146ZM25.0169 52.6396C24.893 52.753 24.6505 52.7003 24.4859 52.5213C24.3159 52.3427 24.284 52.1035 24.4098 51.9886C24.5377 51.8753 24.7727 51.9283 24.9432 52.1069C25.1134 52.2878 25.1463 52.5251 25.0169 52.6396ZM25.8944 54.0791C25.7349 54.1882 25.4745 54.0859 25.3135 53.858C25.1542 53.6301 25.1542 53.3567 25.3169 53.2472C25.4784 53.1377 25.7349 53.2362 25.898 53.4625C26.0569 53.6942 26.0569 53.9675 25.8942 54.0793L25.8944 54.0791ZM27.378 55.7462C27.2356 55.9012 26.932 55.8595 26.7097 55.6481C26.4826 55.4414 26.4193 55.1482 26.5623 54.9932C26.7065 54.8378 27.0118 54.8815 27.2356 55.0914C27.4611 55.2976 27.5302 55.593 27.378 55.7462ZM29.2959 56.3089C29.233 56.5098 28.9405 56.6011 28.6461 56.5158C28.352 56.4279 28.1596 56.1928 28.219 55.9899C28.2801 55.7876 28.5738 55.6927 28.8704 55.784C29.1641 55.8714 29.3571 56.1048 29.2959 56.3091V56.3089ZM31.4783 56.5478C31.4856 56.7591 31.236 56.9343 30.9268 56.9383C30.616 56.9451 30.3644 56.7741 30.3609 56.5658C30.3609 56.3526 30.6051 56.1789 30.916 56.1737C31.2252 56.1677 31.4783 56.3375 31.4783 56.5478V56.5478ZM33.6223 56.4667C33.6592 56.673 33.4445 56.8848 33.1374 56.9413C32.8358 56.9956 32.5563 56.8682 32.5179 56.6638C32.4805 56.4523 32.6993 56.2404 33.0005 56.1858C33.308 56.1331 33.5831 56.257 33.6223 56.4667Z" fill="#161614"/>
</svg>
