<svg width="80" height="80" viewBox="0 0 80 80" fill="none" xmlns="http://www.w3.org/2000/svg">
<path d="M62.4378 14.8083L58.3056 60.7308L39.7307 65.8391L21.2071 60.7379L17.0791 14.8083H62.4378Z" fill="#E44D26"/>
<path d="M39.7585 61.9344L54.7679 57.8066L58.2991 18.5636H39.7585V61.9344Z" fill="#F16529"/>
<path d="M31.7254 29.8299H39.7585V24.1969H25.5197L25.6555 25.7081L27.0512 41.2314H39.7585V35.5983H32.2444L31.7254 29.8299V29.8299ZM33.0052 44.048H27.305L28.1004 52.8928L39.7323 56.0959L39.7585 56.0888V50.228L39.7336 50.2346L33.4096 48.5406L33.0052 44.048V44.048Z" fill="#EBEBEB"/>
<path d="M39.7389 41.2314H46.7313L46.072 48.5371L39.7388 50.2328V56.0932L51.3799 52.8928L51.4653 51.941L52.7998 37.1109L52.9383 35.5983H39.7389V41.2314ZM39.7389 29.8162V29.8299H53.455L53.5688 28.5639L53.8277 25.7081L53.9634 24.1969H39.7389V29.8164V29.8162Z" fill="white"/>
</svg>
