<svg width="80" height="80" viewBox="0 0 80 80" fill="none" xmlns="http://www.w3.org/2000/svg">
<path d="M59.75 15.5H21.25C18.3516 15.5 16 17.8516 16 20.75V59.25C16 62.1484 18.3516 64.5 21.25 64.5H59.75C62.6484 64.5 65 62.1484 65 59.25V20.75C65 17.8516 62.6484 15.5 59.75 15.5ZM42.6656 53.7156C42.6656 58.4844 39.8656 60.6609 35.7859 60.6609C32.1 60.6609 29.9672 58.7578 28.8734 56.45L32.625 54.1859C33.3469 55.4656 34.0031 56.5484 35.5891 56.5484C37.0984 56.5484 38.0609 55.9578 38.0609 53.65V37.9984H42.6656V53.7156V53.7156ZM53.5594 60.6609C49.2828 60.6609 46.5156 58.6266 45.1703 55.9578L48.9219 53.7922C49.9062 55.4 51.1969 56.5922 53.4609 56.5922C55.3641 56.5922 56.5891 55.6406 56.5891 54.3172C56.5891 52.7422 55.3422 52.1844 53.2312 51.2547L52.0828 50.7625C48.7578 49.3516 46.5594 47.5687 46.5594 43.8172C46.5594 40.3609 49.1953 37.7359 53.2969 37.7359C56.2281 37.7359 58.3281 38.7531 59.8375 41.4219L56.25 43.7188C55.4625 42.3078 54.6094 41.75 53.2859 41.75C51.9406 41.75 51.0875 42.6031 51.0875 43.7188C51.0875 45.0969 51.9406 45.6547 53.9203 46.5188L55.0688 47.0109C58.9844 48.6844 61.1828 50.4016 61.1828 54.2516C61.1828 58.3859 57.9234 60.6609 53.5594 60.6609V60.6609Z" fill="#F7DF1E"/>
</svg>
