<svg width="80" height="80" viewBox="0 0 80 80" fill="none" xmlns="http://www.w3.org/2000/svg">
<g clip-path="url(#clip0_135_307)">
<path d="M60.1896 43.1401C58.2371 43.1503 56.5401 43.6208 55.1191 44.3164C54.5978 43.2833 54.0764 42.3627 53.9844 41.6876C53.8822 40.9 53.7595 40.4192 53.8822 39.4781C54.0049 38.5371 54.5569 37.1971 54.5467 37.0948C54.5364 36.9925 54.424 36.5117 53.2995 36.5015C52.175 36.4913 51.2038 36.7163 51.0914 37.013C50.9789 37.3096 50.7643 37.9847 50.6211 38.6803C50.4269 39.7032 48.3721 43.3549 47.1965 45.2677C46.8183 44.521 46.4912 43.8663 46.4196 43.3447C46.3174 42.557 46.1947 42.0763 46.3174 41.1352C46.4401 40.1942 46.9921 38.8542 46.9819 38.7519C46.9716 38.6496 46.8592 38.1688 45.7347 38.1586C44.6102 38.1484 43.639 38.3734 43.5266 38.67C43.4141 38.9667 43.2915 39.6623 43.0563 40.3374C42.8212 41.0125 40.0918 47.1089 39.3762 48.6842C39.0081 49.4923 38.6912 50.1367 38.4663 50.5765C38.4663 50.5765 38.4561 50.6072 38.4255 50.6584C38.2312 51.0368 38.1188 51.2414 38.1188 51.2414C38.1188 51.2414 38.1188 51.2414 38.1188 51.2516C37.9654 51.5278 37.8019 51.7835 37.7201 51.7835C37.6587 51.7835 37.5463 51.0471 37.7405 50.0446C38.1494 47.9272 39.1206 44.6335 39.1104 44.521C39.1104 44.4596 39.2944 43.8868 38.4766 43.5902C37.6792 43.2935 37.393 43.7845 37.3214 43.7845C37.2498 43.7845 37.1987 43.9584 37.1987 43.9584C37.1987 43.9584 38.0881 40.2555 35.5018 40.2555C33.8866 40.2555 31.658 42.0251 30.554 43.6208C29.8588 43.9993 28.3765 44.8074 26.792 45.6769C26.1889 46.0144 25.5653 46.352 24.9826 46.6691C24.9417 46.6282 24.9008 46.577 24.8599 46.5361C21.7318 43.1912 15.9457 40.8283 16.1911 36.3378C16.2831 34.7012 16.8453 30.4051 27.3031 25.1883C35.9107 20.9433 42.7599 22.1196 43.9457 24.728C45.6427 28.4513 40.2758 35.3661 31.382 36.3685C27.9881 36.747 26.2093 35.4377 25.7595 34.9467C25.2893 34.4353 25.2177 34.4046 25.0439 34.5069C24.7577 34.6603 24.9417 35.1206 25.0439 35.3866C25.3097 36.0821 26.4035 37.3096 28.2539 37.9131C29.8895 38.445 33.8661 38.7416 38.681 36.88C44.0684 34.7933 48.2801 28.9935 47.0432 24.1347C45.8062 19.2044 37.6281 17.578 29.8895 20.3296C25.2893 21.9662 20.3006 24.5439 16.7124 27.899C12.4495 31.8883 11.7749 35.3559 12.0509 36.8084C13.0425 41.9638 20.1472 45.3188 22.9892 47.8045C22.846 47.8863 22.7131 47.9579 22.6007 48.0193C21.1797 48.7251 15.7617 51.5585 14.4123 54.5556C12.8789 57.9516 14.6577 60.3861 15.8333 60.7134C19.4828 61.7261 23.2345 59.9053 25.2484 56.898C27.2623 53.8907 27.0169 49.9832 26.0866 48.1932C26.0764 48.1727 26.0662 48.1523 26.0458 48.1318C26.4138 47.917 26.792 47.692 27.16 47.4772C27.8858 47.0475 28.6014 46.6486 29.2148 46.3213C28.8672 47.2726 28.6117 48.408 28.489 50.0446C28.3356 51.9677 29.1228 54.4635 30.1553 55.4455C30.6153 55.8751 31.1571 55.8853 31.5047 55.8853C32.711 55.8853 33.2528 54.8829 33.8559 53.6963C34.5919 52.2438 35.2564 50.5561 35.2564 50.5561C35.2564 50.5561 34.4284 55.1182 36.6774 55.1182C37.4952 55.1182 38.3232 54.0544 38.6912 53.5122C38.6912 53.5225 38.6912 53.5225 38.6912 53.5225C38.6912 53.5225 38.7117 53.4918 38.7526 53.4202C38.8344 53.2872 38.8855 53.2054 38.8855 53.2054C38.8855 53.2054 38.8855 53.1951 38.8855 53.1849C39.2126 52.6121 39.9486 51.313 41.0425 49.1547C42.4532 46.3724 43.8128 42.8946 43.8128 42.8946C43.8128 42.8946 43.9355 43.7436 44.3546 45.1552C44.6 45.9837 45.1111 46.8941 45.52 47.7738C45.1929 48.2341 44.9884 48.4898 44.9884 48.4898C44.9884 48.4898 44.9884 48.4898 44.9987 48.5C44.7329 48.8478 44.4466 49.2263 44.1297 49.5945C43.0154 50.9243 41.6865 52.4484 41.5025 52.8883C41.2878 53.4099 41.3389 53.7884 41.7478 54.0953C42.0443 54.3203 42.5759 54.351 43.1177 54.3203C44.1195 54.2487 44.8249 54.0032 45.1724 53.8498C45.7142 53.6554 46.348 53.3588 46.941 52.9189C48.0348 52.1109 48.6993 50.955 48.6379 49.4309C48.6073 48.5921 48.3313 47.7533 47.9939 46.9657C48.0961 46.8225 48.1881 46.6793 48.2904 46.5361C50.018 44.0095 51.3572 41.2375 51.3572 41.2375C51.3572 41.2375 51.4798 42.0865 51.899 43.4981C52.1034 44.2141 52.5226 44.9915 52.8906 45.7485C51.2652 47.068 50.2633 48.6023 49.9056 49.6048C49.2615 51.4664 49.7624 52.3052 50.7131 52.4996C51.1425 52.5916 51.7559 52.387 52.2057 52.1927C52.7781 52.0086 53.4528 51.6915 54.0969 51.2209C55.1907 50.4129 56.2436 49.2877 56.1823 47.7636C56.1516 47.068 55.9676 46.3827 55.7121 45.7178C57.0921 45.145 58.8709 44.8279 61.1403 45.0938C66.0063 45.6666 66.9673 48.7046 66.7833 49.9832C66.5992 51.2619 65.577 51.9574 65.2396 52.1722C64.9023 52.387 64.7898 52.4586 64.8205 52.6121C64.8614 52.8371 65.0249 52.8269 65.3112 52.786C65.7099 52.7144 67.8669 51.7528 67.9589 49.4002C68.1122 46.3929 65.2498 43.1094 60.1896 43.1401ZM22.6518 55.8035C21.0366 57.5629 18.7876 58.2278 17.8165 57.6652C16.7738 57.0617 17.1827 54.4635 19.1659 52.6018C20.3721 51.4664 21.926 50.4129 22.9585 49.7684C23.1936 49.6252 23.5412 49.4207 23.9603 49.1649C24.0319 49.124 24.0728 49.1036 24.0728 49.1036C24.1546 49.0524 24.2363 49.0013 24.3181 48.9501C25.0439 51.6096 24.3488 53.9521 22.6518 55.8035ZM34.4079 47.8045C33.8457 49.1752 32.6701 52.6837 31.9545 52.4893C31.3411 52.3257 30.9629 49.6661 31.8318 47.0373C32.2714 45.7178 33.2016 44.1425 33.7435 43.5288C34.6226 42.5468 35.5938 42.2195 35.8289 42.6184C36.1253 43.1401 34.7555 46.9453 34.4079 47.8045ZM44.1093 52.4484C43.8742 52.5712 43.6493 52.653 43.547 52.5916C43.4755 52.5507 43.6493 52.387 43.6493 52.387C43.6493 52.387 44.8658 51.0777 45.3462 50.4845C45.6222 50.1367 45.9494 49.7275 46.2969 49.2672C46.2969 49.3081 46.2969 49.3593 46.2969 49.4002C46.2969 50.9652 44.784 52.0188 44.1093 52.4484ZM51.5923 50.7402C51.4185 50.6174 51.4492 50.2083 52.0319 48.9297C52.2568 48.4284 52.7884 47.5897 53.6982 46.7816C53.8004 47.1089 53.872 47.426 53.8617 47.7226C53.8515 49.6968 52.4408 50.4333 51.5923 50.7402Z" fill="#CD6799"/>
</g>
<defs>
<clipPath id="clip0_135_307">
<rect width="56" height="42" fill="white" transform="translate(12 19)"/>
</clipPath>
</defs>
</svg>
