<?xml version="1.0" encoding="UTF-8"?><svg id="_이어_2" xmlns="http://www.w3.org/2000/svg" viewBox="0 0 1548.09 600.5"><defs><style>.cls-1{fill:#7d8fea;}.cls-2{fill:#7e95e7;}.cls-3{fill:#80a6e0;}.cls-4{fill:#80a0e3;}.cls-5{fill:#7c8aec;}.cls-6{fill:#7f9be5;}.cls-7{fill:#84bcd7;}.cls-8{fill:#86c8d3;}.cls-9{fill:#88d3ce;}.cls-10{fill:#81abde;}.cls-11{fill:#85c2d5;}.cls-12{fill:#87cdd0;}.cls-13{fill:#83b7d9;}.cls-14{fill:#7979f3;}.cls-15{fill:#7b84ee;}.cls-16{fill:#7873f5;}.cls-17{fill:#82b1dc;}.cls-18{fill:#7a7ef0;}</style></defs><g id="_이어_1-2"><g><path class="cls-9" d="M0,203.28c19.29-29.38,49.57-49.98,81.04-64.62,64.27-29.02,136.97-32.24,206.21-24.88,34.57,3.72,69.48,10.56,103.24,18.94,135.85,34.82,262.98,96.72,384.55,165.5,106.08,60.41,216.27,115,332.97,151.67,110.93,34.77,248.55,58.84,358.57,10.9,23.86-10.64,46.37-24.87,64.91-43.39,6.14-6.19,11.96-12.79,16.62-20.19-2.25,3.75-4.9,7.24-7.65,10.64-8.32,10.16-18.01,19.13-28.39,27.14-150.07,110.88-397.66,30.97-552.16-37.88-128.5-55.62-244.89-135.05-373.22-190.96-63.73-28.45-129.38-52.88-196.95-70.47-33.58-8.52-68.33-15.52-102.76-19.41-85.39-9.42-179.41-3.12-250.59,49.67-13.82,10.56-26.87,22.65-36.38,37.33H0Z"/><path class="cls-12" d="M3.18,226.65c18.29-29.71,47.73-51.04,78.52-66.48,62.93-30.67,134.96-35.98,203.88-30.7,34.41,2.69,69.25,8.45,102.99,15.78,135.81,30.59,263.76,88.28,386.39,152.98,107.02,56.84,217.96,107.79,334.82,140.76,111.08,31.26,248.35,51.12,356.11,.34,23.36-11.25,45.28-26.03,63.13-44.95,5.91-6.32,11.49-13.04,15.9-20.51-2.13,3.78-4.65,7.33-7.28,10.78-7.96,10.32-17.31,19.5-27.37,27.76-145.67,114.39-393.66,42.34-548.97-21.47-129.13-51.44-246.93-126.85-375.9-178.58-64.07-26.36-129.92-48.69-197.48-64.16-33.57-7.47-68.26-13.4-102.53-16.25-85.01-6.85-178.11,2.15-247.19,56.61-13.41,10.88-25.99,23.26-35,38.1h0Z"/><path class="cls-8" d="M6.36,250.01c8.35-15.13,20.36-27.94,33.25-39.32,21.19-18.42,46.11-32.28,72.23-42.41,198.52-74.44,482.05,40.86,663.05,129.94,183.33,90.89,494.08,218.21,690.31,119.62,22.87-11.87,44.19-27.19,61.36-46.52,5.69-6.45,11.02-13.29,15.18-20.84-8.35,15.13-20.38,27.93-33.27,39.3-39.44,34.03-90.16,52.26-141.06,60.43-137.69,19.92-276.28-18.43-404.72-65.48-161.66-60.47-309.14-152.52-476.41-199.22-118.18-34.24-255.21-59.1-373.98-16.01-26.11,9.87-51.02,23.47-72.31,41.64-12.99,11.21-25.12,23.87-33.63,38.87h0Z"/><path class="cls-11" d="M9.54,273.38c7.84-15.28,19.4-28.38,31.87-40.07,20.51-18.94,44.85-33.47,70.51-44.32,195.07-79.94,480.33,26.14,662.89,109.24,184.94,84.83,497.62,202.04,689.7,98.14,22.37-12.48,43.11-28.36,59.59-48.08,5.46-6.58,10.55-13.54,14.46-21.17-7.84,15.28-19.42,28.37-31.89,40.05-64.73,58.53-156.36,73.65-240.94,72.17-103.16-2.46-204.38-27.88-301.66-60.82-162.49-55.25-311.83-142.3-479.49-183.69-118.48-30.48-255.44-51.07-372.18-4.67-25.65,10.6-50,24.86-70.61,43.56-12.57,11.53-24.25,24.48-32.25,39.65h0Z"/><path class="cls-7" d="M12.72,296.74c7.34-15.44,18.44-28.82,30.48-40.83,19.83-19.46,43.6-34.65,68.8-46.22,191.62-85.44,478.61,11.42,662.74,88.54,186.56,78.77,501.17,185.86,689.09,76.66,21.88-13.1,42.02-29.52,57.81-49.64,5.23-6.72,10.09-13.79,13.74-21.5-7.34,15.44-18.45,28.81-30.51,40.81-62.62,60.19-153.31,78-237.48,79.11-102.69,.69-204.15-21.53-301.92-51.34-163.32-50.03-314.52-132.09-482.57-168.17-118.79-26.72-255.66-43.04-370.38,6.67-25.19,11.32-48.99,26.26-68.92,45.48-12.16,11.85-23.38,25.09-30.88,40.42h0Z"/><path class="cls-13" d="M15.9,320.11c6.83-15.6,17.48-29.26,29.1-41.59,19.15-19.99,42.35-35.84,67.08-48.13,188.17-90.93,476.89-3.29,662.58,67.85,188.17,72.71,504.71,169.69,688.47,55.18,21.38-13.72,40.93-30.69,56.04-51.2,5-6.85,9.62-14.05,13.02-21.83-6.83,15.6-17.49,29.25-29.13,41.57-60.5,61.85-150.25,82.36-234.03,86.04-102.23,3.83-203.93-15.18-302.19-41.86-164.15-44.8-317.22-121.87-485.64-152.64-119.1-22.96-255.89-35.01-368.59,18.01-24.74,12.05-47.97,27.65-67.23,47.41-11.74,12.17-22.51,25.7-29.5,41.2h0Z"/><path class="cls-17" d="M19.07,343.48c6.33-15.76,16.52-29.7,27.72-42.34,18.47-20.51,41.1-37.02,65.37-50.03,184.72-96.43,475.16-18,662.42,47.16,189.79,66.64,508.26,153.51,687.86,33.7,20.88-14.33,39.84-31.85,54.27-52.77,4.77-6.98,9.15-14.3,12.3-22.16-6.33,15.76-16.53,29.69-27.75,42.33-58.39,63.5-147.2,86.71-230.58,92.97-101.76,6.97-203.7-8.84-302.45-32.39-164.98-39.58-319.91-111.66-488.72-137.11-119.41-19.2-256.11-26.97-366.79,29.36-24.28,12.77-46.95,29.04-65.53,49.33-11.33,12.5-21.64,26.31-28.13,41.97h0Z"/><path class="cls-10" d="M22.25,366.84c5.82-15.91,15.56-30.14,26.34-43.1,17.78-21.03,39.85-38.21,63.66-51.94,181.27-101.92,473.44-32.72,662.27,26.46,191.41,60.58,511.81,137.33,687.25,12.21,20.39-14.95,38.76-33.01,52.49-54.33,4.54-7.11,8.68-14.55,11.58-22.49-1.37,4-3.16,7.85-5.06,11.62-5.8,11.3-13.12,21.76-21.3,31.46-56.27,65.16-144.15,91.07-227.12,99.89-101.29,10.12-203.48-2.49-302.72-22.91-165.84-34.37-322.54-101.43-491.79-121.58-119.71-15.44-256.34-18.94-364.99,40.7-23.82,13.5-45.94,30.43-63.84,51.25-10.91,12.82-20.76,26.92-26.75,42.75h0Z"/><path class="cls-3" d="M25.43,390.21c5.32-16.07,14.59-30.58,24.96-43.85,17.1-21.55,38.61-39.39,61.94-53.85,177.83-107.41,471.72-47.43,662.11,5.77,193.02,54.52,515.36,121.15,686.64-9.27,19.89-15.56,37.67-34.18,50.72-55.89,4.31-7.24,8.22-14.8,10.86-22.82-1.24,4.04-2.91,7.93-4.69,11.76-5.44,11.47-12.43,22.14-20.29,32.08-54.16,66.81-141.09,95.42-223.67,106.82-100.83,13.26-203.25,3.86-302.98-13.44-166.67-29.15-325.24-91.21-494.87-106.06-120.02-11.68-256.57-10.9-363.19,52.05-23.37,14.22-44.92,31.83-62.14,53.17-10.49,13.14-19.89,27.53-25.37,43.52h0Z"/><path class="cls-4" d="M28.61,413.57c4.82-16.23,13.63-31.02,23.58-44.61,16.42-22.08,37.36-40.57,60.23-55.75,174.38-112.91,470-62.13,661.96-14.91,194.64,48.46,518.91,104.97,686.02-30.76,19.39-16.18,36.58-35.34,48.94-57.46,4.08-7.38,7.75-15.05,10.14-23.15-1.11,4.08-2.66,8.02-4.32,11.9-5.08,11.63-11.73,22.51-19.28,32.7-52.05,68.47-138.04,99.77-220.22,113.75-100.36,16.4-203.03,10.2-303.25-3.97-167.5-23.92-327.93-81-497.95-90.53-120.33-7.92-256.79-2.86-361.4,63.4-22.91,14.95-43.9,33.22-60.45,55.1-10.07,13.46-19.02,28.14-24,44.3h0Z"/><path class="cls-6" d="M31.79,436.94c4.31-16.39,12.67-31.46,22.2-45.37,15.74-22.6,36.11-41.76,58.52-57.66,125.11-86.95,315.3-84.99,461.6-69,134.77,13.74,265.33,52.99,400.02,67.09,100.46,11.08,203.04,14.41,302.75-4.53,81.54-16.19,166.48-49.39,216.77-118.86,9.67-13.78,18.17-28.74,22.65-45.06-4.31,16.39-12.69,31.45-22.23,45.35-49.94,70.12-134.99,104.13-216.77,120.67-99.9,19.54-202.8,16.55-303.51,5.51-67.29-7.5-134.02-19.34-200.19-33.45-99.05-21.25-199.51-37.42-300.83-41.56-120.63-4.15-257.02,5.18-359.6,74.75-22.46,15.68-42.88,34.61-58.75,57.02-9.66,13.79-18.15,28.75-22.62,45.07h0Z"/><path class="cls-2" d="M34.97,460.3c3.81-16.55,11.71-31.9,20.82-46.12,15.06-23.12,34.86-42.94,56.81-59.56,122.58-90.97,313.1-94.93,460.11-83.49,135.4,9.56,267.37,44.79,402.7,54.71,100.95,7.96,203.79,8.09,303.06-14,81.16-18.77,165.19-54.67,213.38-125.81,9.25-14.1,17.3-29.35,21.27-45.83-3.81,16.55-11.73,31.89-20.85,46.11-47.83,71.78-131.94,108.48-213.32,127.6-99.43,22.68-202.58,22.89-303.78,14.98-67.62-5.41-134.81-15.18-201.53-27.25-99.86-18.19-200.97-31.24-302.57-32.23-120.94-.39-257.25,13.22-357.8,86.11-22,16.4-41.86,36.01-57.06,58.94-9.24,14.11-17.27,29.37-21.24,45.85h0Z"/><path class="cls-1" d="M38.15,483.67c3.3-16.7,10.75-32.34,19.44-46.88,14.38-23.64,33.61-44.13,55.1-61.46,120.06-94.99,310.9-104.88,458.63-97.97,136.02,5.38,269.41,36.59,405.38,42.32,101.45,4.85,204.54,1.77,303.37-23.46,80.77-21.34,163.89-59.95,209.98-132.77,8.84-14.42,16.42-29.96,19.89-46.61-3.31,16.7-10.77,32.33-19.47,46.87-26.83,43.77-68.98,76.08-114.32,99.01-123.3,60-264.9,65.56-399.6,59.96-67.95-3.33-135.61-11.03-202.86-21.05-100.67-15.13-202.43-25.07-304.32-22.89-121.24,3.37-257.48,21.26-356,97.46-21.54,17.13-40.84,37.4-55.36,60.87-8.82,14.43-16.4,29.98-19.86,46.62h0Z"/><path class="cls-5" d="M41.33,507.04c2.8-16.86,9.79-32.78,18.06-47.64,13.7-24.17,32.36-45.31,53.39-63.37,117.54-99.01,308.71-114.82,457.14-112.46,136.65,1.19,271.45,28.39,408.06,29.93,101.95,1.73,205.3-4.55,303.68-32.93,80.39-23.91,162.6-65.23,206.59-139.73,8.42-14.75,15.55-30.57,18.52-47.38-2.8,16.86-9.81,32.77-18.09,47.63-25.57,44.75-66.86,78.46-111.65,102.87-121.86,64-263.77,73.95-399.09,72.5-68.28-1.24-136.41-6.88-204.19-14.86-101.48-12.07-203.9-18.89-306.06-13.56-121.48,7.11-257.78,29.33-354.2,108.81-21.08,17.85-39.82,38.79-53.66,62.79-8.4,14.76-15.52,30.59-18.48,47.4h0Z"/><path class="cls-15" d="M44.51,530.4c2.3-17.02,8.83-33.22,16.68-48.4,13.02-24.69,31.12-46.49,51.68-65.27,115.01-103.03,306.51-124.76,455.66-126.94,137.27-2.99,273.49,20.19,410.74,17.55,102.44-1.39,206.05-10.87,303.98-42.4,80.01-26.48,161.3-70.51,203.19-146.69,8-15.07,14.68-31.18,17.14-48.16-2.3,17.02-8.85,33.22-16.71,48.38-24.31,45.72-64.75,80.84-108.98,106.72-120.42,68.01-262.63,82.34-398.58,85.03-68.62,.85-137.2-2.73-205.53-8.66-102.29-9-205.36-12.72-307.8-4.23-121.79,10.87-258.01,37.38-352.39,120.17-20.63,18.58-38.81,40.19-51.97,64.71-7.99,15.08-14.65,31.2-17.11,48.17h0Z"/><path class="cls-18" d="M47.69,553.77c1.79-17.18,7.87-33.66,15.31-49.15,12.34-25.21,29.87-47.68,49.97-67.18,112.49-107.05,304.32-134.7,454.18-141.42,137.9-7.17,275.54,11.99,413.42,5.16,102.94-4.52,206.8-17.2,304.29-51.87,79.62-29.06,160-75.8,199.79-153.65,7.58-15.39,13.8-31.8,15.76-48.93-1.8,17.18-7.89,33.66-15.34,49.14-23.05,46.69-62.64,83.23-106.31,110.58-118.99,72.01-261.5,90.73-398.07,97.57-68.95,2.94-138,1.42-206.86-2.47-103.1-5.94-206.83-6.54-309.55,5.11-122.1,14.63-258.23,45.43-350.59,131.53-20.17,19.31-37.79,41.58-50.27,66.64-7.57,15.4-13.78,31.81-15.73,48.95h0Z"/><path class="cls-14" d="M50.87,577.13c3.21-34.73,20.13-66.9,40.86-94.39,42.76-55.38,104.91-92.1,168.96-117.98,32.01-12.87,65.77-23.18,99.24-31.6,135.22-32.92,275.44-38.15,414.02-34.69,103.91,2.89,208.29,.4,311.3-14.35,68.45-10,136.71-25.03,201.21-50.44,79.23-31.63,158.71-81.08,196.4-160.61,5.45-11.79,9.86-24.11,12.52-36.85,.86-4.25,1.59-8.53,1.86-12.86-3.22,34.73-20.17,66.89-40.94,94.35-56.77,72.67-144.3,112.92-230.67,139.04-79.2,23.29-161.4,35.07-243.56,41.04-138.53,11.31-277.58-3.85-416.1,7.22-150.46,11.22-341.54,43.71-452.17,153.84-19.71,20.03-36.77,42.97-48.57,68.56-7.15,15.72-12.9,32.42-14.35,49.72h0Z"/><path class="cls-16" d="M54.05,600.5c.29-8.74,1.98-17.38,4.15-25.84,6.65-25.42,18.95-49.11,34.22-70.4,41.4-57.04,102.89-95.86,166.62-123.81,31.85-13.91,65.53-25.28,98.99-34.75,135.18-37.15,276.22-46.57,415.86-47.2,104.72-.18,209.75-5.78,313.04-23.69,68.63-12.1,136.92-29.27,201.12-56.76,78.85-34.21,157.43-86.35,193.04-167.55,5.13-12.04,9.19-24.59,11.49-37.49,.74-4.3,1.34-8.64,1.47-13.01-.29,8.74-1.99,17.38-4.16,25.84-6.66,25.42-18.99,49.09-34.3,70.36-54.99,74.87-141.93,117.99-228.13,146.84-79.05,25.79-161.48,40.09-244.03,48.54-139.16,15.49-279.62,4.35-418.78,19.61-151.21,15.76-342.58,54.16-450.77,168.33-19.26,20.76-35.76,44.36-46.89,70.48-6.72,16.05-12,33.04-12.93,50.51h0Z"/></g></g></svg>