<?xml version="1.0" encoding="UTF-8"?><svg id="_이어_2" xmlns="http://www.w3.org/2000/svg" viewBox="0 0 96 374"><defs><style>.cls-1{fill:#f1f1f1;}.cls-2{isolation:isolate;}</style></defs><g id="_이어_1-2"><g><path class="cls-1" d="M10.6,50.82c.78,.45,1.41,1.55,1.4,2.45v3.78c-.01,.9-.64,1.27-1.42,.81l-8.4-4.9c-.78-.45-1.41-1.56-1.4-2.45v-3.78c.01-.91,.64-1.27,1.42-.81l8.4,4.9Z"/><path class="cls-1" d="M12.03,97.46c.78,.45,1.41,1.56,1.41,2.46v3.78c-.01,.91-.65,1.26-1.43,.81l-9.97-5.82c-.78-.45-1.41-1.55-1.4-2.45v-3.78c.01-.9,.64-1.27,1.42-.81l9.97,5.82Z"/><g class="cls-2"><path class="cls-1" d="M18.35,85.87c.77,.45,1.41,1.56,1.4,2.46v3.78c-.01,.91-.65,1.26-1.42,.81L2.09,83.45c-.78-.45-1.41-1.55-1.4-2.45v-3.78c.01-.91,.64-1.28,1.42-.82l16.24,9.47Z"/><path class="cls-1" d="M48.14,87.99c.77,.45,1.41,1.55,1.4,2.45v3.78c-.01,.91-.65,1.27-1.42,.82L2.13,68.21c-.78-.45-1.41-1.56-1.4-2.46v-3.78c.01-.91,.64-1.27,1.42-.81l45.99,26.83Z"/><path class="cls-1" d="M50.38,74.03c.78,.45,1.41,1.55,1.41,2.46v3.78c-.01,.9-.65,1.26-1.43,.81L16.38,61.26c-.78-.45-1.41-1.56-1.4-2.45v-3.78c.01-.91,.64-1.27,1.42-.81l33.98,19.83Z"/></g><path class="cls-1" d="M43,54.46c.78,.45,1.41,1.56,1.4,2.45v3.78c-.01,.91-.64,1.27-1.42,.81L2.22,37.73c-.78-.45-1.41-1.55-1.4-2.45v-3.78c.01-.9,.64-1.27,1.42-.81l40.77,23.79Z"/><path class="cls-1" d="M33.65,33.74c.78,.45,1.41,1.56,1.4,2.46v3.78c-.01,.91-.64,1.27-1.42,.81L2.26,22.48c-.78-.45-1.41-1.55-1.4-2.45v-3.78c.01-.91,.64-1.28,1.42-.82l31.38,18.31Z"/><path class="cls-1" d="M56.92,62.58c.78,.45,1.41,1.56,1.4,2.45v3.78c-.01,.91-.64,1.27-1.42,.81l-5.79-3.38c-.78-.45-1.41-1.55-1.4-2.45v-3.78c.01-.9,.64-1.27,1.42-.81l5.79,3.38Z"/><path class="cls-1" d="M71.41,55.77c.77,.45,1.41,1.56,1.4,2.46v3.78c-.01,.91-.65,1.26-1.42,.81l-31.38-18.31c-.78-.45-1.41-1.55-1.4-2.45v-3.78c.01-.91,.64-1.28,1.42-.82l31.38,18.31Z"/><path class="cls-1" d="M62.4,35.25c.78,.45,1.41,1.55,1.4,2.45v3.78c-.01,.91-.64,1.28-1.42,.82L2.3,7.25c-.78-.45-1.41-1.56-1.4-2.46V1.01c.01-.91,.64-1.27,1.42-.81L62.4,35.25Z"/><path class="cls-1" d="M89.37,50.99c.78,.45,1.41,1.55,1.4,2.45v3.78c-.01,.91-.64,1.28-1.42,.82l-18.58-10.84c-.78-.45-1.41-1.56-1.4-2.46v-3.78c.01-.91,.64-1.27,1.42-.81l18.58,10.84Z"/><path class="cls-1" d="M74.98,118.91c.78,.45,1.41,1.56,1.4,2.46v3.78c-.01,.91-.64,1.27-1.42,.81l-2.46-1.43c-.78-.45-1.41-1.55-1.41-2.46v-3.78c.01-.91,.65-1.27,1.43-.82l2.46,1.43Z"/><path class="cls-1" d="M27.81,106.66c.78,.45,1.41,1.56,1.4,2.45v3.78c-.01,.91-.64,1.27-1.42,.81l-9.97-5.82c-.78-.45-1.41-1.55-1.4-2.45v-3.78c.01-.9,.64-1.27,1.42-.81l9.97,5.82Z"/><path class="cls-1" d="M10.13,218.47c.78,.45,1.41,1.56,1.4,2.46v3.78c-.01,.91-.64,1.27-1.42,.81l-8.4-4.9c-.78-.45-1.41-1.55-1.4-2.45v-3.78c.01-.91,.64-1.28,1.42-.82l8.4,4.9Z"/><path class="cls-1" d="M11.56,265.11c.78,.45,1.41,1.55,1.41,2.46v3.78c-.01,.9-.65,1.26-1.43,.81l-9.97-5.82c-.78-.45-1.41-1.56-1.4-2.45v-3.78c.01-.91,.64-1.27,1.42-.81l9.97,5.82Z"/><g class="cls-2"><path class="cls-1" d="M31.84,307.47c.78,.45,1.41,1.56,1.4,2.46v3.78c-.01,.91-.64,1.27-1.42,.81L1.49,296.83c-.78-.45-1.41-1.55-1.4-2.45v-3.78c.01-.91,.64-1.28,1.42-.82l30.33,17.7Z"/><path class="cls-1" d="M38.67,296.2c.77,.45,1.41,1.55,1.4,2.45v3.78c-.01,.91-.65,1.27-1.42,.82L1.53,281.59c-.78-.45-1.41-1.56-1.4-2.46v-3.78c.01-.91,.64-1.27,1.42-.81l37.12,21.66Z"/><path class="cls-1" d="M50.66,287.92c.77,.45,1.41,1.55,1.4,2.45v3.78c-.01,.9-.65,1.26-1.42,.81l-20.42-11.91c-.77-.45-1.41-1.56-1.4-2.45v-3.78c.01-.91,.65-1.26,1.42-.81l20.42,11.91Z"/></g><path class="cls-1" d="M37.5,341.31c.78,.45,1.41,1.55,1.4,2.45v3.78c-.01,.48-.19,.8-.47,.94-.25,.12-.58,.09-.95-.13L1.4,327.31c-.37-.21-.7-.57-.95-.98-.28-.46-.46-1-.46-1.48v-3.78c.01-.91,.64-1.27,1.42-.81l36.07,21.05Z"/><g class="cls-2"><path class="cls-1" d="M65.66,281.41c.78,.45,1.41,1.56,1.41,2.46v3.78c-.01,.91-.65,1.26-1.43,.81l-40.24-23.48c-.78-.45-1.41-1.55-1.4-2.45v-3.78c.01-.9,.64-1.27,1.42-.81l40.24,23.48Z"/><path class="cls-1" d="M89.71,264.9c.77,.45,1.41,1.56,1.4,2.46v3.78c-.01,.91-.65,1.26-1.42,.81l-33.99-19.83c-.78-.45-1.41-1.55-1.4-2.45v-3.78c.01-.91,.64-1.28,1.42-.82l33.99,19.83Z"/><path class="cls-1" d="M78.44,243.06c.78,.45,1.41,1.55,1.4,2.45v3.78c-.01,.91-.64,1.28-1.42,.82l-16.76-9.78c-.77-.45-1.41-1.56-1.4-2.46v-3.78c.01-.91,.65-1.26,1.42-.81l16.76,9.78Z"/><path class="cls-1" d="M32.31,139.82c.78,.45,1.41,1.55,1.4,2.45v3.78c-.01,.9-.64,1.27-1.42,.81L1.96,129.18c-.78-.45-1.41-1.56-1.4-2.45v-3.78c.01-.91,.64-1.27,1.42-.81l30.33,17.7Z"/><path class="cls-1" d="M55.76,168.77c.78,.45,1.41,1.55,1.4,2.45v3.78c-.01,.91-.64,1.28-1.42,.82L1.92,144.42c-.78-.45-1.41-1.56-1.4-2.46v-3.78c.01-.91,.64-1.27,1.42-.81l53.82,31.4Z"/><path class="cls-1" d="M47.67,255.64c.77,.45,1.41,1.56,1.4,2.46v3.78c-.01,.91-.65,1.26-1.42,.81L1.66,235.86c-.78-.45-1.41-1.55-1.4-2.45v-3.78c.01-.91,.64-1.28,1.42-.82l45.99,26.83Z"/><path class="cls-1" d="M17.88,253.53c.77,.45,1.41,1.56,1.4,2.45v3.78c-.01,.91-.65,1.26-1.42,.81L1.62,251.11c-.78-.45-1.41-1.55-1.4-2.45v-3.78c.01-.9,.64-1.27,1.42-.81l16.24,9.47Z"/><path class="cls-1" d="M49.91,241.68c.78,.45,1.41,1.56,1.41,2.47v3.78c-.01,.91-.65,1.26-1.43,.81l-33.98-19.83c-.78-.45-1.41-1.55-1.4-2.45v-3.78c.01-.91,.64-1.28,1.42-.82l33.98,19.83Z"/><path class="cls-1" d="M42.53,222.12c.78,.45,1.41,1.55,1.4,2.45v3.78c-.01,.91-.64,1.28-1.42,.82L1.74,205.38c-.78-.45-1.41-1.56-1.4-2.46v-3.78c.01-.91,.64-1.27,1.42-.81l40.77,23.79Z"/><path class="cls-1" d="M72.1,224.1c.77,.45,1.41,1.55,1.4,2.45v3.78c-.01,.9-.65,1.26-1.42,.81l-31.38-18.31c-.78-.45-1.41-1.56-1.4-2.45v-3.78c.01-.91,.64-1.27,1.42-.81l31.38,18.31Z"/><path class="cls-1" d="M86.58,217.28c.78,.45,1.41,1.56,1.4,2.45v3.78c-.01,.91-.64,1.27-1.42,.81l-18.58-10.84c-.78-.45-1.41-1.55-1.4-2.45v-3.78c.01-.9,.64-1.27,1.42-.81l18.58,10.84Z"/><path class="cls-1" d="M61.93,202.9c.78,.45,1.41,1.56,1.4,2.45v3.78c-.01,.91-.64,1.27-1.42,.81L1.83,174.9c-.78-.45-1.41-1.55-1.4-2.45v-3.78c.01-.9,.64-1.27,1.42-.81l60.08,35.05Z"/><path class="cls-1" d="M84.18,185.35c.77,.45,1.41,1.55,1.4,2.45v3.78c-.01,.91-.65,1.27-1.42,.82l-21.46-12.52c-.78-.45-1.41-1.56-1.41-2.47v-3.78c.01-.91,.65-1.26,1.43-.81l21.46,12.52Z"/><path class="cls-1" d="M39.14,128.54c.77,.45,1.41,1.56,1.4,2.45v3.78c-.01,.91-.65,1.26-1.42,.81L2,113.93c-.78-.45-1.41-1.55-1.4-2.45v-3.78c.01-.9,.64-1.27,1.42-.81l37.12,21.66Z"/><path class="cls-1" d="M65.56,113.41c.78,.45,1.41,1.56,1.4,2.46v3.78c-.01,.91-.64,1.27-1.42,.81l-40.25-23.48c-.77-.45-1.41-1.55-1.4-2.45v-3.78c.01-.91,.65-1.27,1.42-.82l40.25,23.48Z"/><path class="cls-1" d="M90.18,97.25c.77,.45,1.41,1.55,1.4,2.45v3.78c-.01,.9-.65,1.26-1.42,.81l-33.99-19.83c-.78-.45-1.41-1.56-1.4-2.45v-3.78c.01-.91,.64-1.27,1.42-.81l33.99,19.83Z"/><path class="cls-1" d="M24.59,272.71l-7.22-4.21c-.78-.45-1.41-.09-1.41,.81v3.78c-.01,.9,.61,2,1.39,2.45l7.22,4.21c.77,.45,1.41,.09,1.41-.81v-3.78c.01-.91-.62-2-1.39-2.45Z"/><path class="cls-1" d="M33.18,201.4c.78,.45,1.41,1.55,1.4,2.45v3.78c-.01,.9-.64,1.27-1.42,.81L1.79,190.14c-.78-.45-1.41-1.56-1.4-2.45v-3.78c.01-.91,.64-1.27,1.42-.81l31.38,18.31Z"/><path class="cls-1" d="M37.97,173.65c.78,.45,1.41,1.56,1.4,2.46v3.78c-.01,.91-.64,1.27-1.42,.81L1.87,159.65c-.78-.45-1.41-1.55-1.4-2.45v-3.78c.01-.91,.64-1.28,1.42-.82l36.07,21.05Z"/><path class="cls-1" d="M47.16,148.49c.77,.45,1.41,1.55,1.4,2.45v3.78c-.01,.9-.65,1.26-1.42,.81l-7.89-4.6c-.78-.45-1.41-1.56-1.4-2.45v-3.78c.01-.91,.64-1.27,1.42-.81l7.89,4.6Z"/><path class="cls-1" d="M79.84,198.08c.78,.45,1.41,1.56,1.41,2.47v3.78c-.01,.91-.65,1.26-1.43,.81l-36.07-21.04c-.78-.45-1.41-1.55-1.41-2.46v-3.78c.01-.91,.65-1.27,1.43-.82l36.07,21.04Z"/><path class="cls-1" d="M79.18,167.16c.77,.45,1.41,1.55,1.4,2.45v3.78c-.01,.9-.65,1.26-1.42,.81l-25.63-14.96c-.78-.45-1.41-1.56-1.4-2.45v-3.78c.01-.91,.64-1.27,1.42-.81l25.63,14.96Z"/><path class="cls-1" d="M55.19,122.63c.78,.45,1.41,1.56,1.4,2.45v3.78c-.01,.91-.64,1.27-1.42,.81l-20.41-11.91c-.78-.45-1.41-1.55-1.4-2.45v-3.78c.01-.9,.64-1.27,1.42-.81l20.41,11.91Z"/><path class="cls-1" d="M71.79,147.59c.78,.45,1.41,1.56,1.41,2.46v3.78c-.01,.91-.65,1.26-1.43,.81l-25.11-14.65c-.78-.45-1.41-1.55-1.4-2.45v-3.78c.01-.9,.64-1.27,1.42-.81l25.11,14.65Z"/><path class="cls-1" d="M69.72,100.58c.77,.45,1.41,1.55,1.4,2.45v3.78c-.01,.91-.65,1.27-1.42,.82l-15.19-8.86c-.78-.45-1.41-1.56-1.4-2.46v-3.78c.01-.91,.64-1.27,1.42-.81l15.19,8.86Z"/><path class="cls-1" d="M79.49,75.75c.77,.45,1.41,1.56,1.4,2.45v3.78c-.01,.91-.65,1.26-1.42,.81l-16.76-9.78c-.78-.45-1.41-1.55-1.4-2.45v-3.78c.01-.9,.64-1.27,1.42-.81l16.76,9.78Z"/></g><path class="cls-1" d="M90.06,127.71c.78,.45,1.41,1.56,1.4,2.46v3.78c-.01,.91-.64,1.27-1.42,.81l-9.42-5.5c-.78-.45-1.41-1.55-1.41-2.46v-3.78c.01-.91,.65-1.27,1.43-.82l9.42,5.5Z"/><path class="cls-1" d="M94.6,115.1c.78,.45,1.41,1.55,1.4,2.45v3.78c-.01,.91-.64,1.28-1.42,.82l-20.24-11.81c-.77-.45-1.41-1.56-1.4-2.46v-3.78c.01-.91,.65-1.26,1.42-.81l20.24,11.81Z"/><path class="cls-1" d="M88.71,142.19c.78,.45,1.41,1.56,1.4,2.45v3.78c-.01,.91-.64,1.27-1.42,.81l-27.72-16.17c-.78-.45-1.41-1.55-1.4-2.45v-3.78c.01-.9,.64-1.27,1.42-.81l27.72,16.17Z"/><path class="cls-1" d="M55.29,229.56c.78,.45,1.41,1.55,1.4,2.45v3.78c-.01,.91-.64,1.28-1.42,.82l-5.79-3.38c-.78-.45-1.41-1.56-1.4-2.46v-3.78c.01-.91,.64-1.27,1.42-.81l5.79,3.38Z"/><path class="cls-1" d="M66.43,266.59c.78,.45,1.41,1.56,1.4,2.46v3.78c-.01,.91-.64,1.27-1.42,.81l-12.96-7.56c-.77-.45-1.41-1.55-1.4-2.45v-3.78c.01-.91,.65-1.27,1.42-.82l12.96,7.56Z"/><path class="cls-1" d="M79.47,289.46c.78,.45,1.41,1.56,1.4,2.45v3.78c-.01,.91-.64,1.27-1.42,.81l-6.84-3.99c-.78-.45-1.41-1.55-1.4-2.45v-3.78c.01-.9,.64-1.27,1.42-.81l6.84,3.99Z"/><path class="cls-1" d="M93.55,282.41c.77,.45,1.41,1.56,1.4,2.46v3.78c-.01,.91-.65,1.26-1.42,.81l-21.98-12.83c-.77-.45-1.41-1.55-1.4-2.45v-3.78c.01-.91,.65-1.27,1.42-.82l21.98,12.83Z"/><path class="cls-1" d="M46.69,316.14c.77,.45,1.41,1.56,1.4,2.46v3.78c-.01,.91-.65,1.26-1.42,.81l-7.89-4.6c-.78-.45-1.41-1.55-1.4-2.45v-3.78c.01-.91,.64-1.28,1.42-.82l7.89,4.6Z"/><path class="cls-1" d="M55.29,336.42c.78,.45,1.41,1.56,1.4,2.45v3.78c-.01,.91-.64,1.27-1.42,.81L1.45,312.07c-.78-.45-1.41-1.55-1.4-2.45v-3.78c.01-.9,.64-1.27,1.42-.81l53.82,31.4Z"/><path class="cls-1" d="M84.19,307.48c.77,.45,1.41,1.55,1.4,2.45v3.78c-.01,.9-.65,1.26-1.42,.81l-27.72-16.18c-.77-.45-1.41-1.56-1.4-2.45v-3.78c.01-.91,.65-1.26,1.42-.81l27.72,16.18Z"/><g class="cls-2"><path class="cls-1" d="M82.55,352.32c.77,.45,1.41,1.56,1.4,2.45v3.78c-.01,.91-.65,1.26-1.42,.81l-21.46-12.52c-.78-.45-1.41-1.55-1.41-2.46v-3.78c.01-.9,.65-1.26,1.43-.81l21.46,12.52Z"/><path class="cls-1" d="M79.28,335.15c.78,.45,1.41,1.56,1.4,2.46v3.78c-.01,.91-.64,1.27-1.42,.81l-25.63-14.96c-.77-.45-1.41-1.55-1.4-2.45v-3.78c.01-.91,.65-1.27,1.42-.82l25.63,14.96Z"/></g><path class="cls-1" d="M71.9,315.59c.78,.45,1.41,1.55,1.4,2.45v3.78c-.01,.91-.64,1.28-1.42,.82l-25.11-14.65c-.77-.45-1.41-1.56-1.4-2.46v-3.78c.01-.91,.65-1.26,1.42-.81l25.11,14.65Z"/><path class="cls-1" d="M81.11,366.75c.78,.45,1.41,1.55,1.4,2.45v3.78c-.01,.48-.19,.8-.47,.94-.25,.12-.58,.09-.95-.13l-36.07-21.05c-.37-.21-.7-.57-.95-.98-.28-.46-.46-1-.46-1.48v-3.78c.01-.91,.64-1.27,1.42-.81l36.07,21.05Z"/></g></g></svg>