<?xml version="1.0" encoding="UTF-8"?><svg id="_이어_2" xmlns="http://www.w3.org/2000/svg" viewBox="0 0 140 400"><defs><style>.cls-1{fill:#e1e1e1;}.cls-2{fill:#444;opacity:0;}</style></defs><g id="_이어_1-2"><g><rect class="cls-2" width="140" height="399.48"/><g><rect class="cls-1" width="89.31" height="8.62" rx="2" ry="2"/><rect class="cls-1" x="97.22" width="30.39" height="8.62" rx="2" ry="2"/><rect class="cls-1" y="18.64" width="48.55" height="8.62" rx="2" ry="2"/><rect class="cls-1" x="53.61" y="18.64" width="48.55" height="8.62" rx="2" ry="2"/><rect class="cls-1" y="37.27" width="61.89" height="8.62" rx="2" ry="2"/><rect class="cls-1" x="69.42" y="37.27" width="12.23" height="8.62" rx="2" ry="2"/><rect class="cls-1" x="85.89" y="37.27" width="27.79" height="8.62" rx="2" ry="2"/><rect class="cls-1" y="55.91" width="15.94" height="8.62" rx="2" ry="2"/><rect class="cls-1" x="20.18" y="55.91" width="52.25" height="8.62" rx="2" ry="2"/><rect class="cls-1" x="76.67" y="55.91" width="52.25" height="8.62" rx="2" ry="2"/><rect class="cls-1" y="74.55" width="69.3" height="8.62" rx="2" ry="2"/><rect class="cls-1" x="74.36" y="74.55" width="25.57" height="8.62" rx="2" ry="2"/><rect class="cls-1" x="102.53" y="74.55" width="32.74" height="8.62" rx="2" ry="2"/><rect class="cls-1" y="93.19" width="27.05" height="8.62" rx="2" ry="2"/><rect class="cls-1" x="32.94" y="93.19" width="61.15" height="8.62" rx="2" ry="2"/><rect class="cls-1" x="99.98" y="93.19" width="7.49" height="8.62" rx="2" ry="2"/><rect class="cls-1" x="111.51" y="93.19" width="17.38" height="8.62" rx="2" ry="2"/><rect class="cls-1" y="111.82" width="18.16" height="8.62" rx="2" ry="2"/><rect class="cls-1" x="22.4" y="111.82" width="18.16" height="8.62" rx="2" ry="2"/><rect class="cls-1" x="46.45" y="111.82" width="32.98" height="8.62" rx="2" ry="2"/><rect class="cls-1" x="83.67" y="111.82" width="43.36" height="8.62" rx="2" ry="2"/><rect class="cls-1" y="130.46" width="56.7" height="8.62" rx="2" ry="2"/><rect class="cls-1" x="63.41" y="130.46" width="39.65" height="8.62" rx="2" ry="2"/><rect class="cls-1" y="149.1" width="47.06" height="8.62" rx="2" ry="2"/><rect class="cls-1" x="52.95" y="149.1" width="15.19" height="8.62" rx="2" ry="2"/><rect class="cls-1" x="73.21" y="149.1" width="40.39" height="8.62" rx="2" ry="2"/><rect class="cls-1" y="167.73" width="80.42" height="8.62" rx="2" ry="2"/><rect class="cls-1" x="86.31" y="167.73" width="34.46" height="8.62" rx="2" ry="2"/><rect class="cls-1" y="186.37" width="55.22" height="8.62" rx="2" ry="2"/><rect class="cls-1" x="59.46" y="186.37" width="55.22" height="8.62" rx="2" ry="2"/><rect class="cls-1" y="205.01" width="89.31" height="8.62" rx="2" ry="2"/><rect class="cls-1" x="93.92" y="205.01" width="30.39" height="8.62" rx="2" ry="2"/><rect class="cls-1" y="223.64" width="48.55" height="8.62" rx="2" ry="2"/><rect class="cls-1" x="55.26" y="223.64" width="48.55" height="8.62" rx="2" ry="2"/><rect class="cls-1" y="242.28" width="61.89" height="8.62" rx="2" ry="2"/><rect class="cls-1" x="67.78" y="242.28" width="12.23" height="8.62" rx="2" ry="2"/><rect class="cls-1" x="85.07" y="242.28" width="27.79" height="8.62" rx="2" ry="2"/><rect class="cls-1" y="260.92" width="15.94" height="8.62" rx="2" ry="2"/><rect class="cls-1" x="20.18" y="260.92" width="52.25" height="8.62" rx="2" ry="2"/><rect class="cls-1" x="76.67" y="260.92" width="52.25" height="8.62" rx="2" ry="2"/><rect class="cls-1" y="279.56" width="69.3" height="8.62" rx="2" ry="2"/><rect class="cls-1" x="73.54" y="279.56" width="22.4" height="8.62" rx="2" ry="2"/><rect class="cls-1" x="99.24" y="279.56" width="35.21" height="8.62" rx="2" ry="2"/><rect class="cls-1" y="298.19" width="27.05" height="8.62" rx="2" ry="2"/><rect class="cls-1" x="33.76" y="298.19" width="61.15" height="8.62" rx="2" ry="2"/><rect class="cls-1" x="100.8" y="298.19" width="13.71" height="8.62" rx="2" ry="2"/><rect class="cls-1" y="316.83" width="18.16" height="8.62" rx="2" ry="2"/><rect class="cls-1" x="22.4" y="316.83" width="14.25" height="8.62" rx="2" ry="2"/><rect class="cls-1" x="40.68" y="316.83" width="32.98" height="8.62" rx="2" ry="2"/><rect class="cls-1" x="77.91" y="316.83" width="43.36" height="8.62" rx="2" ry="2"/><rect class="cls-1" y="335.47" width="56.7" height="8.62" rx="2" ry="2"/><rect class="cls-1" x="64.24" y="335.47" width="39.65" height="8.62" rx="2" ry="2"/><rect class="cls-1" y="354.1" width="47.06" height="8.62" rx="2" ry="2"/><rect class="cls-1" x="52.95" y="354.1" width="15.19" height="8.62" rx="2" ry="2"/><rect class="cls-1" x="74.04" y="354.1" width="40.39" height="8.62" rx="2" ry="2"/><rect class="cls-1" y="372.74" width="80.42" height="8.62" rx="2" ry="2"/><rect class="cls-1" x="84.66" y="372.74" width="34.46" height="8.62" rx="2" ry="2"/><rect class="cls-1" y="391.38" width="55.22" height="8.62" rx="2" ry="2"/><rect class="cls-1" x="61.93" y="391.38" width="55.22" height="8.62" rx="2" ry="2"/></g></g></g></svg>