<?xml version="1.0" encoding="UTF-8"?><svg id="_이어_2" xmlns="http://www.w3.org/2000/svg" xmlns:xlink="http://www.w3.org/1999/xlink" viewBox="0 0 62 42"><defs><style>.cls-1{fill:url(#_제_그라디언트_301);}.cls-2{fill:url(#_제_그라디언트_302);}.cls-3{fill:url(#_제_그라디언트_286);}.cls-4{fill:url(#_제_그라디언트_270);}</style><linearGradient id="_제_그라디언트_286" x1="47.99" y1="35.18" x2="47.99" y2="8.2" gradientTransform="matrix(1, 0, 0, 1, 0, 0)" gradientUnits="userSpaceOnUse"><stop offset="0" stop-color="#88d3ce"/><stop offset=".17" stop-color="#86c9d1"/><stop offset=".47" stop-color="#82b0dc"/><stop offset=".83" stop-color="#7b87ec"/><stop offset=".99" stop-color="#7873f5"/></linearGradient><linearGradient id="_제_그라디언트_301" x1="32.15" y1="34.79" x2="32.15" y2="5.4" gradientTransform="matrix(1, 0, 0, 1, 0, 0)" gradientUnits="userSpaceOnUse"><stop offset="0" stop-color="#88d3ce"/><stop offset=".7" stop-color="#8cc9ed"/><stop offset="1" stop-color="#8ec5fc"/></linearGradient><linearGradient id="_제_그라디언트_302" x1="14.01" y1="35" x2="14.01" y2="7.98" gradientTransform="matrix(1, 0, 0, 1, 0, 0)" gradientUnits="userSpaceOnUse"><stop offset="0" stop-color="#7873f5"/><stop offset=".2" stop-color="#7a7cf5"/><stop offset=".53" stop-color="#8195f7"/><stop offset=".94" stop-color="#8cbefb"/><stop offset="1" stop-color="#8ec5fc"/></linearGradient><linearGradient id="_제_그라디언트_270" x1="29.85" y1="34.8" x2="29.85" y2="5.4" gradientTransform="matrix(1, 0, 0, 1, 0, 0)" gradientUnits="userSpaceOnUse"><stop offset="0" stop-color="#7873f5"/><stop offset=".99" stop-color="#7873f5"/></linearGradient></defs><g id="_이어_1-2"><g><path class="cls-3" d="M48.24,42c-4.93,0-9.51-2.76-11.96-7.21l5.97-3.59c1.22,2.22,3.52,3.6,5.99,3.6,1.2,0,2.39-.33,3.43-.96,3.28-1.98,4.42-6.4,2.52-9.85l-8.28-14.98c-.9-1.62-2.39-1.8-2.98-1.8-.6,0-2.08,.18-2.98,1.8l-5.97-3.6C35.86,2.02,39.2,0,42.94,0c3.74,0,7.08,2.02,8.95,5.4l8.28,14.99c3.79,6.89,1.52,15.71-5.05,19.68-2.1,1.26-4.47,1.93-6.87,1.93Z"/><polygon class="cls-1" points="36.28 34.79 22.05 9 28.01 5.4 42.25 31.2 36.28 34.79"/><path class="cls-2" d="M13.74,42c-2.33,0-4.69-.62-6.85-1.92C.31,36.11-1.95,27.28,1.83,20.4L10.11,5.41C11.98,2.03,15.33,0,19.06,0h0C22.8,0,26.14,2.03,28.01,5.41l-5.97,3.6c-.9-1.62-2.39-1.8-2.98-1.8h0c-.6,0-2.09,.17-2.98,1.8L7.8,24c-1.89,3.44-.76,7.86,2.53,9.85,3.29,1.98,7.52,.79,9.42-2.65l5.96,3.61c-2.55,4.61-7.2,7.2-11.97,7.2Z"/><polygon class="cls-4" points="33.99 5.4 19.75 31.2 25.72 34.8 39.95 9 33.99 5.4"/></g></g></svg>